<?xml version="1.0" encoding="UTF-8" standalone="no"?>
<!-- Created with Inkscape (http://www.inkscape.org/) -->

<svg
   xmlns:dc="http://purl.org/dc/elements/1.1/"
   xmlns:cc="http://creativecommons.org/ns#"
   xmlns:rdf="http://www.w3.org/1999/02/22-rdf-syntax-ns#"
   xmlns:svg="http://www.w3.org/2000/svg"
   xmlns="http://www.w3.org/2000/svg"
   xmlns:sodipodi="http://sodipodi.sourceforge.net/DTD/sodipodi-0.dtd"
   xmlns:inkscape="http://www.inkscape.org/namespaces/inkscape"
   width="736.09448"
   height="342.36218"
   id="svg2"
   version="1.1"
   inkscape:version="0.48.3.1 r9886"
   sodipodi:docname="lgpesv.svg"
   inkscape:export-filename="D:\GPES\Software GPES\logo_gpes_vetorizado.png"
   inkscape:export-xdpi="26.629999"
   inkscape:export-ydpi="26.629999">
  <defs
     id="defs4" />
  <sodipodi:namedview
     id="base"
     pagecolor="#ffffff"
     bordercolor="#666666"
     borderopacity="1.0"
     inkscape:pageopacity="0.0"
     inkscape:pageshadow="2"
     inkscape:zoom="0.90509668"
     inkscape:cx="359.36861"
     inkscape:cy="121.91236"
     inkscape:document-units="px"
     inkscape:current-layer="layer1"
     showgrid="false"
     inkscape:window-width="1366"
     inkscape:window-height="722"
     inkscape:window-x="0"
     inkscape:window-y="24"
     inkscape:window-maximized="1" />
  <metadata
     id="metadata7">
    <rdf:RDF>
      <cc:Work
         rdf:about="">
        <dc:format>image/svg+xml</dc:format>
        <dc:type
           rdf:resource="http://purl.org/dc/dcmitype/StillImage" />
        <dc:title></dc:title>
      </cc:Work>
    </rdf:RDF>
  </metadata>
  <g
     inkscape:label="Layer 1"
     inkscape:groupmode="layer"
     id="layer1"
     transform="translate(0,-710)">
    <path
       style="opacity:0.93000034;fill:#000000;fill-opacity:1"
       d="m 214.91053,860.60361 c -18.9213,-0.1671 -38.4436,1.60399 -55.48748,10.43049 -22.86719,9.94072 -41.94322,29.47444 -48.68416,53.74635 -6.72919,23.78195 -6.35643,50.64189 5.94946,72.57254 8.77931,19.11701 26.22924,32.83091 45.24254,40.82751 12.33471,5.2566 25.77355,7.4144 39.07855,8.265 22.08247,0.3198 44.10063,-3.1742 65.06032,-10.0212 2.12162,-1.6961 0.5748,-5.4762 1.22496,-7.8952 0.69268,-16.3674 -0.26419,-32.90049 1.23169,-49.17132 1.94261,-4.65393 6.0854,-8.46225 11.09348,-9.51463 1.64267,-0.94194 4.16539,-1.42289 4.93272,-3.31419 -2.05541,-1.71451 -5.64424,-0.44364 -8.20809,-1.0144 -19.54653,-0.15533 -39.14798,-0.90906 -58.66543,0.33088 -1.73431,-0.30143 -2.78142,1.83325 -0.72146,2.16397 8.82253,2.77894 19.30594,1.87007 26.8859,7.60382 5.10325,5.66276 3.38596,14.10372 4.03262,21.09525 -0.21451,9.80532 0.68916,19.81242 -0.62058,29.49852 -2.69447,6.5483 -10.67574,8.2105 -16.86469,9.9627 -12.80865,2.7209 -26.3033,3.142 -39.26635,1.4624 -15.73979,-3.9659 -30.56435,-12.1368 -40.71592,-25.0081 -11.40817,-13.82971 -17.55885,-31.68975 -18.90483,-49.50819 -0.074,-16.73722 -1.3269,-34.08296 5.08563,-49.93313 7.93088,-23.59851 29.47621,-41.87596 54.3221,-44.9011 16.17155,-2.64604 34.12994,-2.1962 48.60376,6.04643 11.79862,6.93803 19.68296,19.58684 21.30984,33.16391 -0.0839,2.34588 2.51582,5.06103 4.56229,2.8659 2.17857,-4.383 1.00259,-9.7772 1.67352,-14.54311 0.0968,-9.57302 1.12555,-19.33318 0.19827,-28.81742 -5.11529,-2.73708 -11.41574,-2.57144 -17.0056,-3.94213 -11.65569,-2.48718 -23.48054,-2.63694 -35.34285,-2.45266 z"
       id="path3016"
       inkscape:connector-curvature="0"
       inkscape:export-filename="D:\GPES\Software GPES\logo_gpes_vetorizado.png"
       inkscape:export-xdpi="26.629999"
       inkscape:export-ydpi="26.629999" />
    <path
       style="opacity:0.93000034;fill:#000000;fill-opacity:1"
       d="m 368.23228,862.98196 c -19.8164,0.34025 -39.70597,0.10956 -59.46482,1.54037 -2.39342,1.13514 0.61176,2.98901 2.06665,2.86595 6.65586,1.74125 15.95731,1.87893 18.82033,9.46801 2.5266,4.87498 0.65326,10.8011 1.27642,16.13095 0.11401,44.27343 0.81826,88.58928 -1.21483,132.82876 -0.026,7.3827 -8.00866,10.4917 -14.08573,12.0316 -2.16311,1.1213 -6.05127,0.5831 -7.25274,2.905 1.42155,2.2222 5.05952,0.6146 7.25274,1.2282 20.4329,0.2327 40.90141,0.5763 61.31699,-0.1559 1.71246,0.3658 3.91868,-1.8477 1.32579,-2.4175 -8.52038,-2.0192 -19.20696,-0.4762 -25.18971,-8.2864 -3.77799,-4.7685 -1.94431,-11.827 -2.59303,-17.5858 0.0892,-15.41437 -0.71674,-30.98908 0.77983,-46.30447 0.36631,-2.23885 3.66859,-0.0995 5.10242,-0.49966 12.24842,1.50194 24.83824,2.05798 37.04936,0.0817 15.63836,-3.83414 31.15935,-12.61019 39.51972,-26.78842 11.34406,-18.79696 10.53295,-45.74055 -5.76904,-61.47972 -13.1857,-12.28647 -32.08406,-16.34762 -49.69895,-15.57124 -3.08048,-8.3e-4 -6.16093,8.2e-4 -9.24141,0.002 z m 2.944,6.53153 c 13.06703,0.53785 27.49344,3.36533 36.73169,13.17965 10.26453,12.72711 11.08191,31.15135 7.09952,46.57262 -3.56665,14.86511 -15.80314,28.40873 -31.54094,30.02793 -9.60434,0.96374 -19.5938,2.19297 -29.0964,0.27485 -2.79313,-0.65148 -4.51037,-2.93604 -3.70336,-5.90764 0.16084,-24.40418 -0.91871,-48.85365 0.46692,-73.22942 -0.0162,-3.69634 1.52169,-7.49584 5.36157,-8.57843 4.55269,-2.0875 9.68643,-2.39437 14.68097,-2.33967 z"
       id="path3018"
       inkscape:connector-curvature="0"
       inkscape:export-filename="D:\GPES\Software GPES\logo_gpes_vetorizado.png"
       inkscape:export-xdpi="26.629999"
       inkscape:export-ydpi="26.629999" />
    <path
       style="opacity:0.93000034;fill:#000000;fill-opacity:1"
       d="m 523.03575,863.50845 c -20.70573,0.29131 -41.46566,-0.31406 -62.13586,0.87705 -2.40716,1.08524 -0.0345,3.48206 1.7937,3.23647 7.59443,1.05257 16.32566,2.42029 20.48975,9.70038 2.26329,3.59198 0.44271,8.5111 0.9858,12.66211 -0.45452,45.41298 -0.12535,90.84206 -1.31595,136.24284 -1.25167,6.2233 -7.99734,9.5811 -13.70615,10.8596 -3.8634,1.2199 -8.35692,1.0853 -11.85399,3.1195 0.021,2.1779 3.71016,1.0829 5.14712,1.5987 41.03484,1.0853 82.09437,0.8445 123.1409,1.0722 3.49315,-7.227 2.98995,-15.998 4.81736,-23.8219 0.60272,-5.6912 3.84685,-11.3222 2.82533,-17.0626 -1.62631,-2.48146 -4.69714,-9e-4 -5.2836,2.0666 -5.74523,9.8587 -9.84846,21.7488 -20.46168,27.5949 -7.42945,3.8012 -16.18002,3.6866 -24.34163,4.438 -11.00061,0 -22.72976,0.8997 -33.00784,-3.3532 -6.34632,-2.8269 -5.62185,-10.8397 -6.12189,-16.6686 -0.94233,-20.18457 -1.30896,-40.43992 0.0197,-60.61621 8.26919,-1.03638 16.7371,0.89051 25.08996,0.74971 13.01735,0.40416 26.05746,1.14558 39.07352,0.96667 1.42763,-3.94691 0.76657,-8.6863 1.36479,-12.90661 -3.64319,-1.29345 -8.35161,-8.4e-4 -12.39735,-0.32042 -17.34844,0.13573 -34.76107,1.17525 -52.0586,1.29615 -2.51912,-2.13295 -0.71761,-6.24535 -1.37297,-9.10476 -0.0797,-20.85142 -0.5511,-41.7761 0.39813,-62.58446 1.45717,-3.49503 6.4843,-2.18932 9.53338,-2.72481 14.2851,0.0679 28.78837,-0.77101 42.93212,1.14551 6.71316,1.73448 12.30783,7.15466 15.61645,13.11704 2.84832,5.5083 3.17658,12.09954 5.51791,17.76585 1.07916,1.99075 4.27061,1.66863 4.1333,-0.93597 1.70262,-12.58896 1.80784,-25.37386 3.13898,-38.01858 -3.62369,-1.33749 -8.34336,-0.14767 -12.38033,-0.53226 -16.52669,0.004 -33.05338,0.0996 -49.58005,0.14177 z"
       id="path3020"
       inkscape:connector-curvature="0"
       inkscape:export-filename="D:\GPES\Software GPES\logo_gpes_vetorizado.png"
       inkscape:export-xdpi="26.629999"
       inkscape:export-ydpi="26.629999" />
    <path
       style="opacity:0.93000033999999998;fill:#f64740;fill-opacity:1"
       d="m 396.80581,718.73947 c -10.4643,7.71227 -20.94019,15.59243 -32.95948,20.96458 -40.59001,19.71784 -86.65033,23.21148 -131.15158,21.81491 -40.42574,0.47779 -80.28037,-7.11893 -120.49165,-9.83036 -23.957783,-1.17763 -49.019625,2.17406 -70.22707,13.89653 -18.394242,10.61015 -30.029474,30.90048 -31.158814,52.05264 -0.492547,7.58888 -1.951697,15.56713 0.195152,22.94419 4.039718,-5.95597 6.806295,-13.87276 11.648234,-19.82835 12.731743,-18.80912 31.485632,-33.06494 53.147213,-40.22441 36.175565,-13.15554 75.421425,-10.70098 113.184845,-8.40948 28.05691,3.96589 56.46935,4.31013 84.75766,3.88765 39.64374,-2.82561 79.98185,-15.78622 109.19144,-43.56378 2.08917,-1.31683 4.10828,-4.6004 6.58522,-3.58507 3.1589,-2.4441 -0.72903,2.21154 -1.6268,3.39146 -20.57929,23.637 -50.78861,37.28245 -80.92819,44.70823 -47.73328,12.51888 -97.60335,8.75596 -146.37261,12.77543 -39.23344,4.3581 -80.306401,15.35634 -109.231988,43.67517 -14.892635,14.07535 -22.794206,36.29744 -15.73263,56.11452 8.352921,20.77306 26.69077,35.14592 42.600622,50.07899 4.445599,3.66017 8.524528,7.9668 13.26102,11.15911 2.148436,-3.77855 0.833799,-9.33422 1.626961,-13.67576 1.010769,-22.68152 11.366585,-44.4749 28.257055,-59.54054 26.30354,-24.51719 61.6327,-36.47489 95.95661,-45.34505 49.45348,-11.90834 100.5005,-26.19068 140.69072,-58.77016 15.2544,-12.13427 27.49133,-27.5212 35.77011,-45.15328 0.86874,-3.05355 4.40758,-6.39262 3.50452,-9.53717 l -0.38616,-0.002 -0.11024,0.002 z"
       id="path3872"
       inkscape:connector-curvature="0"
       inkscape:export-filename="D:\GPES\Software GPES\logo_gpes_vetorizado.png"
       inkscape:export-xdpi="26.629999"
       inkscape:export-ydpi="26.629999" />
    <path
       style="opacity:0.93000033999999998;fill:#f64747;fill-opacity:1"
       d="m 92.188719,782.31386 c -6.723065,0.45474 -13.132653,2.8457 -19.429847,5.08784 -7.403916,2.65236 -14.494222,6.15187 -20.903452,10.74008 -5.63651,3.77845 -10.299318,8.77863 -14.694166,13.88838 -1.957696,2.53882 -4.109018,5.19685 -4.880504,8.35449 -0.396927,2.91082 1.221089,5.61074 2.895208,7.83748 3.121299,3.72632 9.568856,4.0477 12.823405,0.32493 5.149312,-4.87292 10.163214,-9.95251 16.182759,-13.73753 9.309354,-6.14722 19.449297,-10.82936 29.695584,-15.1956 4.124574,-1.58351 7.471164,-6.04623 6.603374,-10.5637 -0.90811,-2.51757 -2.971806,-4.49832 -5.059379,-6.12813 -0.948998,-0.6083 -2.142092,-0.6217 -3.232982,-0.60707 z"
       id="path3874"
       inkscape:connector-curvature="0"
       inkscape:export-filename="D:\GPES\Software GPES\logo_gpes_vetorizado.png"
       inkscape:export-xdpi="26.629999"
       inkscape:export-ydpi="26.629999" />
    <path
       style="opacity:0.93000034;fill:#000000;fill-opacity:1"
       d="m 677.71893,859.80733 c -12.00938,0.35046 -24.36869,1.87373 -34.94798,7.95622 -8.22843,3.84609 -13.36836,10.86982 -19.41107,18.22367 -2.34244,2.89031 -3.57991,6.79791 -4.78383,10.36738 -1.91615,4.90612 -2.80363,14.0402 0.0554,23.6157 4.41811,8.98578 9.89,17.79214 18.23919,23.60209 14.7061,11.1655 32.64402,16.71008 48.52749,25.83541 7.2998,4.7314 13.83239,11.03657 17.94963,18.84556 3.72241,8.28948 2.68158,17.85514 1.07534,26.52484 -3.15819,11.0087 -12.8128,19.1967 -23.52129,21.0153 -5.58384,0.8426 -12.66269,1.4983 -18.41004,1.6083 -10.66102,-1.011 -12.01752,-1.4183 -17.18227,-4.34 -10.34718,-5.3516 -16.15521,-15.5556 -21.26008,-25.9074 -1.9603,-3.8298 -3.16493,-8.14144 -5.10088,-11.95277 -1.40747,-1.83228 -5.3932,-2.11453 -6.30033,0.235 3.55427,13.54077 5.17509,27.49497 7.80301,41.22087 1.20526,3.9319 6.277,3.7541 9.49048,4.8693 13.8251,2.8498 27.93845,6.0503 42.1389,4.3674 6.36662,-0.325 12.58579,-1.8469 18.55629,-3.8462 5.47575,-1.8871 10.55114,-5.0039 15.41299,-8.1202 9.30092,-7.3149 16.44469,-17.8596 19.08183,-29.4692 1.13547,-9.46803 1.6549,-19.64343 -2.8758,-28.35046 -5.85012,-12.85574 -17.72071,-21.48626 -29.97322,-27.69397 -11.53111,-6.23875 -23.86254,-10.94111 -35.27039,-17.38672 -7.89608,-4.88573 -18.79392,-13.59497 -20.72016,-22.12005 -0.25221,-1.11782 -1.02137,-14.89147 2.6349,-21.20564 2.6043,-5.70166 11.5777,-13.71357 19.77992,-17.12592 7.90048,-3.85384 15.95907,-3.99627 23.35491,-1.94475 8.059,2.07002 15.46625,6.79763 21.12047,12.88998 5.39172,6.73387 7.5429,15.42174 8.98862,23.75365 0.49158,2.8718 4.59274,2.1054 5.66614,0.11024 1.25219,-5.73446 0.30131,-11.77225 0.63413,-17.61881 -0.0271,-6.95935 0.41619,-13.97532 0.86856,-20.87226 -1.99772,-1.93832 -5.27596,-1.95404 -7.84432,-2.81235 -11.11214,-2.15048 -22.40846,-4.28354 -33.77626,-4.27376 z"
       id="path3884"
       inkscape:connector-curvature="0"
       sodipodi:nodetypes="ccccccccccccccccccccccccccccccccccc"
       inkscape:export-filename="D:\GPES\Software GPES\logo_gpes_vetorizado.png"
       inkscape:export-xdpi="26.629999"
       inkscape:export-ydpi="26.629999" />
  </g>
</svg>
